<?xml version="1.0" encoding="UTF-8" standalone="no"?>
<!-- Created with Inkscape (http://www.inkscape.org/) -->

<svg
   xmlns:dc="http://purl.org/dc/elements/1.1/"
   xmlns:cc="http://creativecommons.org/ns#"
   xmlns:rdf="http://www.w3.org/1999/02/22-rdf-syntax-ns#"
   xmlns:svg="http://www.w3.org/2000/svg"
   xmlns="http://www.w3.org/2000/svg"
   xmlns:sodipodi="http://sodipodi.sourceforge.net/DTD/sodipodi-0.dtd"
   xmlns:inkscape="http://www.inkscape.org/namespaces/inkscape"
   width="238.04001"
   height="23.62941"
   viewBox="0 0 62.981418 6.251948"
   version="1.1"
   id="svg8108"
   inkscape:version="0.92.0 r15299"
   sodipodi:docname="holland barrett.svg">
  <defs
     id="defs8102" />
  <sodipodi:namedview
     id="base"
     pagecolor="#ffffff"
     bordercolor="#666666"
     borderopacity="1.0"
     inkscape:pageopacity="0.0"
     inkscape:pageshadow="2"
     inkscape:zoom="2.0252525"
     inkscape:cx="149.94857"
     inkscape:cy="-65.828147"
     inkscape:document-units="mm"
     inkscape:current-layer="layer1"
     showgrid="false"
     fit-margin-top="0"
     fit-margin-left="0"
     fit-margin-right="0"
     fit-margin-bottom="0"
     units="px"
     inkscape:window-width="1280"
     inkscape:window-height="744"
     inkscape:window-x="-4"
     inkscape:window-y="-4"
     inkscape:window-maximized="1" />
  <metadata
     id="metadata8105">
    <rdf:RDF>
      <cc:Work
         rdf:about="">
        <dc:format>image/svg+xml</dc:format>
        <dc:type
           rdf:resource="http://purl.org/dc/dcmitype/StillImage" />
        <dc:title></dc:title>
      </cc:Work>
    </rdf:RDF>
  </metadata>
  <g
     inkscape:label="Layer 1"
     inkscape:groupmode="layer"
     id="layer1"
     transform="translate(-63.135631,-144.06317)">
    <g
       id="g8444"
       style="fill:#00704a;fill-opacity:1"
       transform="translate(0.13229259,-0.13228754)">
      <path
         inkscape:connector-curvature="0"
         id="path7010"
         style="fill:#00704a;fill-opacity:1;fill-rule:nonzero;stroke:none;stroke-width:0.35277778"
         d="m 97.15968,149.81766 h 25.03417 v 0.39335 H 97.15968 Z" />
      <path
         inkscape:connector-curvature="0"
         id="path7012"
         style="fill:#00704a;fill-opacity:1;fill-rule:nonzero;stroke:none;stroke-width:0.35277778"
         d="m 68.733899,149.81766 h 23.34895 v 0.39335 h -23.34895 z" />
      <g
         transform="matrix(0.35277777,0,0,-0.35277777,100.65369,146.82914)"
         id="g7022"
         style="fill:#00704a;fill-opacity:1">
        <path
           inkscape:connector-curvature="0"
           id="path7024"
           style="fill:#00704a;fill-opacity:1;fill-rule:nonzero;stroke:none"
           d="m 0,0 v -4.435 c 0,-0.606 0,-1.208 0.154,-1.412 0.159,-0.2 0.631,-0.2 1.097,-0.2 0.784,0 1.41,0.2 1.727,0.603 0.467,0.605 0.626,1.21 0.626,2.217 0,1.21 -0.159,2.016 -0.626,2.42 C 2.507,-0.204 1.723,0 0.626,0 Z m 0,0.602 h 0.626 c 0.784,0 1.409,0.404 1.881,0.807 C 2.82,1.813 3.133,2.416 3.133,3.424 3.133,4.231 2.82,5.036 2.507,5.439 2.194,5.842 1.723,6.046 1.097,6.046 0.626,6.046 0.313,5.842 0.154,5.643 0,5.439 0,5.036 0,4.231 Z m -3.603,-7.456 v 0.603 c 0.625,0 0.938,0.204 1.097,0.404 0.154,0.204 0.312,0.806 0.312,1.613 v 8.465 c 0,0.805 -0.158,1.412 -0.312,1.611 -0.159,0.204 -0.472,0.204 -1.097,0.204 v 0.805 h 4.7 c 1.41,0 2.38,-0.215 3.287,-0.805 C 5.218,5.506 5.48,4.634 5.48,3.626 5.48,2.819 5.168,2.012 4.701,1.611 4.23,1.006 3.604,0.602 2.661,0.401 3.758,0.199 4.542,-0.404 5.168,-1.011 c 0.629,-0.603 0.941,-1.41 0.941,-2.216 0,-1.208 -0.47,-2.016 -1.254,-2.62 C 4.23,-6.451 3.133,-6.854 1.723,-6.854 Z" />
      </g>
      <g
         transform="matrix(0.35277777,0,0,-0.35277777,108.22321,146.68753)"
         id="g7026"
         style="fill:#00704a;fill-opacity:1">
        <path
           inkscape:connector-curvature="0"
           id="path7028"
           style="fill:#00704a;fill-opacity:1;fill-rule:nonzero;stroke:none"
           d="m 0,0 h 0.317 0.467 c 0.785,0 1.41,0.201 1.882,0.605 0.312,0.403 0.466,1.21 0.466,2.216 0,0.807 -0.154,1.614 -0.466,2.017 -0.313,0.404 -0.785,0.603 -1.411,0.603 -0.471,0 -0.784,0 -1.096,-0.199 C 0,5.038 0,4.435 0,3.628 Z M 6.581,-7.255 H 3.45 l -1.569,4.029 c 0,0 -0.086,0.182 -0.154,0.404 -0.458,1.416 -1.097,2.017 -1.568,2.017 L 0,-0.805 V -4.837 C 0,-5.442 0,-6.045 0.159,-6.248 0.317,-6.449 0.784,-6.449 1.41,-6.449 v -0.806 h -5.009 v 0.806 c 0.625,0 0.938,0 1.098,0.201 0.153,0.203 0.312,0.806 0.312,1.613 V 3.83 c 0,0.804 -0.159,1.208 -0.312,1.412 -0.16,0.199 -0.473,0.403 -1.098,0.403 v 0.804 h 4.383 c 1.569,0 2.82,-0.403 3.603,-1.008 C 5.172,4.838 5.643,4.031 5.643,2.821 5.643,2.015 5.326,1.21 4.859,0.806 4.387,0.201 2.941,-0.354 2.978,-0.401 3.1,-0.565 3.205,-0.614 3.291,-0.805 3.404,-1.052 3.49,-1.272 3.604,-1.612 L 4.628,-4.236 C 4.981,-5.27 5.367,-5.794 5.643,-6.045 6.001,-6.376 6.269,-6.449 6.581,-6.449 Z" />
      </g>
      <g
         transform="matrix(0.35277777,0,0,-0.35277777,112.04351,146.68753)"
         id="g7030"
         style="fill:#00704a;fill-opacity:1">
        <path
           inkscape:connector-curvature="0"
           id="path7032"
           style="fill:#00704a;fill-opacity:1;fill-rule:nonzero;stroke:none"
           d="M 0,0 H 0.312 0.779 C 1.563,0 2.193,0.201 2.66,0.605 2.973,1.008 3.132,1.815 3.132,2.821 3.132,3.628 2.973,4.435 2.66,4.838 2.347,5.242 1.876,5.441 1.251,5.441 0.779,5.441 0.466,5.441 0.154,5.242 0,5.038 0,4.435 0,3.628 Z M 6.576,-7.255 H 3.444 l -1.568,4.029 c 0,0 -0.082,0.182 -0.155,0.404 -0.452,1.416 -1.096,2.017 -1.567,2.017 H 0 v -4.032 c 0,-0.605 0,-1.208 0.154,-1.411 0.158,-0.201 0.625,-0.201 1.255,-0.201 v -0.806 h -5.013 v 0.806 c 0.626,0 0.938,0 1.097,0.201 0.154,0.203 0.313,0.806 0.313,1.613 V 3.83 c 0,0.804 -0.159,1.208 -0.313,1.412 -0.159,0.199 -0.471,0.403 -1.097,0.403 V 6.449 H 0.779 C 2.347,6.449 3.603,6.046 4.383,5.441 5.167,4.838 5.639,4.031 5.639,2.821 5.639,2.015 5.325,1.21 4.854,0.806 4.383,0.201 2.936,-0.354 2.973,-0.401 3.1,-0.565 3.199,-0.614 3.285,-0.805 3.399,-1.052 3.49,-1.272 3.603,-1.612 l 1.02,-2.624 C 4.976,-5.27 5.347,-5.902 5.62,-6.154 5.978,-6.485 6.264,-6.543 6.576,-6.543 Z" />
      </g>
      <g
         transform="matrix(0.35277777,0,0,-0.35277777,114.57928,149.24704)"
         id="g7034"
         style="fill:#00704a;fill-opacity:1">
        <path
           inkscape:connector-curvature="0"
           id="path7036"
           style="fill:#00704a;fill-opacity:1;fill-rule:nonzero;stroke:none"
           d="m 0,0 v 0.65 c 0.626,0 0.938,0.202 1.097,0.404 0.154,0.201 0.313,0.804 0.313,1.612 v 8.419 c 0,0.805 -0.159,1.208 -0.313,1.412 C 0.938,12.696 0.626,12.9 0,12.9 v 0.805 H 8.3 L 9.242,10.077 8.771,9.673 C 7.986,10.883 7.402,11.563 6.812,12.112 6.251,12.635 5.48,12.9 4.855,12.9 4.383,12.9 3.916,12.696 3.758,12.497 3.599,12.293 3.599,11.89 3.599,11.287 V 7.456 h 0.317 c 0.78,0 1.319,0.091 1.723,0.404 0.385,0.299 0.625,1.006 0.625,1.813 H 6.889 V 4.232 H 6.264 C 6.264,5.24 5.947,5.702 5.639,6.047 5.299,6.427 4.696,6.65 3.916,6.65 H 3.599 V 2.015 c 0,-0.404 0,-0.804 0.159,-1.008 0.158,-0.2 0.471,-0.2 0.784,-0.2 0.938,0 1.718,0.195 2.347,0.603 0.73,0.474 1.411,1.409 2.036,2.619 L 9.555,3.627 8.612,0 Z" />
      </g>
      <g
         transform="matrix(0.35277777,0,0,-0.35277777,118.99916,149.24704)"
         id="g7038"
         style="fill:#00704a;fill-opacity:1">
        <path
           inkscape:connector-curvature="0"
           id="path7040"
           style="fill:#00704a;fill-opacity:1;fill-rule:nonzero;stroke:none"
           d="m 0,0 v 0.807 c 0.626,0 0.942,0 1.096,0.2 0.313,0.204 0.313,0.806 0.313,1.613 V 12.9 C 0.942,12.9 0.471,12.497 0,12.093 -0.467,11.69 -1.097,10.883 -1.723,9.673 l -0.467,0.204 0.78,3.828 H 6.581 L 7.365,9.877 6.735,9.673 C 6.11,10.883 5.643,11.69 5.172,12.093 4.7,12.497 4.075,12.9 3.603,12.9 V 2.62 c 0,-0.807 0.159,-1.409 0.313,-1.613 0.159,-0.2 0.471,-0.2 1.097,-0.2 H 5.172 V 0 Z" />
      </g>
      <g
         transform="matrix(0.35277777,0,0,-0.35277777,122.75684,150.17125)"
         id="g7042"
         style="fill:#00704a;fill-opacity:1">
        <path
           inkscape:connector-curvature="0"
           id="path7044"
           style="fill:#00704a;fill-opacity:1;fill-rule:nonzero;stroke:none"
           d="m 0,0 v 0.807 c 0.63,0 1.065,0.1 1.41,0.401 0.263,0.227 0.312,1.009 0.312,2.015 V 15.52 C 1.097,15.52 0.612,15.091 0,14.509 -0.54,13.997 -1.251,13.1 -2.035,11.69 l -0.626,0.2 0.938,4.435 H 7.832 L 8.775,11.89 8.145,11.69 C 7.365,13.1 6.758,13.911 6.11,14.509 5.548,15.031 5.013,15.52 4.387,15.52 V 3.223 C 4.387,2.217 4.424,1.623 4.7,1.208 4.918,0.889 5.326,0.807 6.11,0.807 V 0 Z" />
      </g>
      <g
         transform="matrix(0.35277777,0,0,-0.35277777,64.621178,147.39842)"
         id="g7046"
         style="fill:#00704a;fill-opacity:1">
        <path
           inkscape:connector-curvature="0"
           id="path7048"
           style="fill:#00704a;fill-opacity:1;fill-rule:nonzero;stroke:none"
           d="m 0,0 v -5.417 c 0,-1.654 1.573,-1.631 1.573,-1.631 v -0.808 h -5.784 v 0.808 c 0,0 1.573,-0.023 1.573,1.631 V 6.028 c 0,1.65 -1.573,1.632 -1.573,1.632 V 8.465 H 1.573 V 7.66 C 1.573,7.66 0,7.678 0,6.028 V 1.006 h 4.941 v 5.022 c 0,1.65 -1.577,1.632 -1.577,1.632 V 8.465 H 9.152 V 7.66 c 0,0 -1.578,0.018 -1.578,-1.632 V -5.417 c 0,-1.654 1.578,-1.631 1.578,-1.631 V -7.856 H 3.364 v 0.808 c 0,0 1.572,-0.023 1.572,1.631 V 0 Z" />
      </g>
      <g
         transform="matrix(0.35277777,0,0,-0.35277777,75.289916,149.2438)"
         id="g7050"
         style="fill:#00704a;fill-opacity:1">
        <path
           inkscape:connector-curvature="0"
           id="path7052"
           style="fill:#00704a;fill-opacity:1;fill-rule:nonzero;stroke:none"
           d="m 0,0 h -8.458 v 0.678 c 0,0 1.324,-0.016 1.324,1.371 v 9.6 c 0,1.387 -1.324,1.371 -1.324,1.371 v 0.675 h 4.855 V 13.02 c 0,0 -1.324,0.016 -1.324,-1.371 V 1.958 c 0,0 -0.086,-1.319 1.387,-1.124 1.478,0.199 2.271,0.73 4.007,3.187 L 0.779,3.617 Z" />
      </g>
      <g
         transform="matrix(0.35277777,0,0,-0.35277777,78.772688,149.2438)"
         id="g7054"
         style="fill:#00704a;fill-opacity:1">
        <path
           inkscape:connector-curvature="0"
           id="path7056"
           style="fill:#00704a;fill-opacity:1;fill-rule:nonzero;stroke:none"
           d="m 0,0 h -8.458 v 0.678 c 0,0 1.319,-0.016 1.319,1.371 v 9.6 c 0,1.387 -1.319,1.371 -1.319,1.371 v 0.675 h 4.854 V 13.02 c 0,0 -1.323,0.016 -1.323,-1.371 V 1.958 c 0,0 -0.087,-1.319 1.387,-1.124 1.473,0.199 2.271,0.73 4.006,3.187 L 0.779,3.617 Z" />
      </g>
      <g
         transform="matrix(0.35277777,0,0,-0.35277777,71.412297,145.04874)"
         id="g7058"
         style="fill:#00704a;fill-opacity:1">
        <path
           inkscape:connector-curvature="0"
           id="path7060"
           style="fill:#00704a;fill-opacity:1;fill-rule:nonzero;stroke:none"
           d="m 0,0 c 1.006,-1.321 1.505,-3.026 1.505,-5.108 0,-2.083 -0.499,-3.785 -1.505,-5.106 -0.979,-1.292 -2.203,-1.936 -3.671,-1.936 -1.56,0 -2.834,0.707 -3.817,2.119 -0.916,1.328 -1.373,2.935 -1.373,4.816 0,2.077 0.48,3.785 1.441,5.118 0.97,1.355 2.216,2.031 3.749,2.031 C -2.198,1.934 -0.974,1.29 0,0 m -1.414,-8.845 c 0.217,0.956 0.326,2.2 0.326,3.737 0,2.112 -0.231,3.703 -0.694,4.775 -0.466,1.072 -1.097,1.609 -1.894,1.609 -1.106,0 -1.863,-0.895 -2.271,-2.683 -0.218,-0.95 -0.322,-2.183 -0.322,-3.701 0,-1.544 0.109,-2.79 0.327,-3.737 0.408,-1.764 1.16,-2.645 2.266,-2.645 1.097,0 1.85,0.881 2.262,2.645" />
      </g>
      <g
         transform="matrix(0.35277777,0,0,-0.35277777,82.276186,148.43548)"
         id="g7062"
         style="fill:#00704a;fill-opacity:1">
        <path
           inkscape:connector-curvature="0"
           id="path7064"
           style="fill:#00704a;fill-opacity:1;fill-rule:nonzero;stroke:none"
           d="M 0,0 C -0.377,1.632 -2.733,11.606 -2.733,11.606 L -4.456,11.001 -7.375,0.451 c 0,0 -0.471,-1.791 -1.464,-1.945 V -2.3 h 3.132 v 0.806 c 0,0 -1.7,-0.002 -1.188,1.551 l 0.717,2.28 h 3.445 l 0.58,-2.339 c 0,0 0.412,-1.432 -1.048,-1.492 V -2.3 h 4.696 v 0.825 C 1.495,-1.475 0.371,-1.634 0,0 m -6.02,3.141 1.723,6.047 1.41,-6.047 z" />
      </g>
      <g
         transform="matrix(0.35277777,0,0,-0.35277777,106.10937,148.43548)"
         id="g7066"
         style="fill:#00704a;fill-opacity:1">
        <path
           inkscape:connector-curvature="0"
           id="path7068"
           style="fill:#00704a;fill-opacity:1;fill-rule:nonzero;stroke:none"
           d="M 0,0 C -0.377,1.632 -2.733,11.606 -2.733,11.606 L -4.456,11.001 -7.375,0.451 c 0,0 -0.471,-1.791 -1.468,-1.945 V -2.3 h 3.136 v 0.806 c 0,0 -1.7,-0.002 -1.192,1.551 l 0.721,2.28 h 3.445 l 0.579,-2.339 c 0,0 0.413,-1.432 -1.051,-1.492 V -2.3 h 4.7 v 0.825 C 1.495,-1.475 0.371,-1.634 0,0 m -6.024,3.141 1.727,6.047 1.41,-6.047 z" />
      </g>
      <g
         transform="matrix(0.35277777,0,0,-0.35277777,84.185428,144.41233)"
         id="g7070"
         style="fill:#00704a;fill-opacity:1">
        <path
           inkscape:connector-curvature="0"
           id="path7072"
           style="fill:#00704a;fill-opacity:1;fill-rule:nonzero;stroke:none"
           d="m 0,0 h -3.445 v -0.805 c 0,0 1.011,0.018 1.569,-0.806 v -9.263 c 0,0 0.104,-1.946 -1.569,-2.024 v -0.807 h 3.762 v 0.807 c 0,0 -1.582,-0.081 -1.582,2.024 v 8.254 l 5.811,-11.085 h 1.251 v 10.736 c 0,0 -0.09,2.047 1.568,2.164 V 0 H 3.603 v -0.805 c 0,0 1.582,-0.235 1.582,-2.185 v -6.685 z" />
      </g>
      <g
         transform="matrix(0.35277777,0,0,-0.35277777,88.872008,144.41959)"
         id="g7074"
         style="fill:#00704a;fill-opacity:1">
        <path
           inkscape:connector-curvature="0"
           id="path7076"
           style="fill:#00704a;fill-opacity:1;fill-rule:nonzero;stroke:none"
           d="m 0,0 h -5.14 v -0.784 c 0,0 1.428,0.177 1.428,-1.713 v -8.709 c 0,0 0.023,-1.8 -1.428,-1.875 v -0.603 H 0 c 0,0 5.195,-0.14 5.195,6.863 C 5.195,0.177 0.359,0 0,0 m 2.008,-11.757 c -0.53,-0.984 -1.926,-1.161 -2.774,-1.12 -0.843,0.037 -0.766,1.178 -0.766,1.178 v 9.714 c 0,0.963 0.848,1.16 0.848,1.16 0.942,0.197 2.003,-0.253 2.379,-0.707 0.372,-0.453 1.138,-1.691 1.138,-4.741 0,-3.046 -0.295,-4.501 -0.825,-5.484" />
      </g>
      <g
         transform="matrix(0.35277777,0,0,-0.35277777,97.676387,145.88987)"
         id="g7078"
         style="fill:#00704a;fill-opacity:1">
        <path
           inkscape:connector-curvature="0"
           id="path7080"
           style="fill:#00704a;fill-opacity:1;fill-rule:nonzero;stroke:none"
           d="m 0,0 c 0,1.729 -1.237,3.402 -2.634,3.402 -1.395,0 -1.831,-1.337 -1.831,-2.203 0,-0.866 0.549,-1.445 1.156,-1.445 1.628,0 0.947,1.88 0.711,2.193 -0.235,0.315 -0.177,0.825 0.495,0.825 0.666,0 1.16,-0.925 1.16,-1.553 0,-0.627 0,-1.493 -0.807,-1.965 -0.806,-0.471 -1.278,-0.63 -3.322,-1.301 -2.049,-0.665 -2.479,-2.239 -2.479,-3.065 0,-0.826 0.217,-2.165 1.06,-2.165 0.848,0 1.201,0.983 1.201,1.36 0,0.371 -0.317,1.16 -0.748,1.042 -0.43,-0.118 -0.865,0.272 -0.511,0.784 0.353,0.512 1.159,0.433 1.159,0.433 1.184,0 1.773,-1.158 1.773,-2.044 0,-0.886 -0.277,-4.011 -4.229,-4.011 -3.953,0 -4.564,2.792 -4.564,4.364 0,1.576 1.268,2.079 1.268,2.079 0.481,-0.712 1.329,-1.036 1.819,-1.036 0.493,0 1.314,0.353 1.314,1.24 0,0.884 -0.585,1.409 -1.41,1.409 -0.825,0 -1.251,-0.199 -1.251,-0.199 -0.603,3.37 0.898,5.847 2.294,5.847 1.396,0 1.79,-1.022 1.808,-1.317 C -6.549,2.38 -6.804,2.223 -6.962,2.4 c -0.159,0.177 -0.421,0.177 -0.421,0.177 -1.166,0 -1.053,-1.378 -1.053,-1.378 0,0 -0.14,-1.435 1.297,-1.435 1.437,0 1.473,1.73 1.473,1.73 0,3.168 -2.946,2.93 -2.946,2.93 -2.833,0 -3.834,-2.595 -3.834,-4.091 0,-1.494 0.824,-2.889 0.824,-2.889 -2.538,-1.67 -2.515,-4.739 -2.515,-4.739 0,-1.14 0.706,-5.249 5.407,-5.249 4.701,0 5.779,3.894 5.779,5.584 0,1.691 -0.517,2.885 -0.517,2.885 C -1.405,-3.746 0,-1.729 0,0 m -8.635,-2.712 c 0.14,-0.395 0.059,-0.946 -0.725,-0.946 -0.789,0 -1.024,0.905 -1.024,0.905 0.824,0.453 1.614,0.435 1.749,0.041" />
      </g>
    </g>
  </g>
</svg>
